<?xml version="1.0" encoding="utf-8"?>
<!-- Generator: Adobe Illustrator 21.0.0, SVG Export Plug-In . SVG Version: 6.00 Build 0)  -->
<svg version="1.1" id="Layer_1" xmlns="http://www.w3.org/2000/svg" xmlns:xlink="http://www.w3.org/1999/xlink" x="0px" y="0px"
	 viewBox="0 0 619.4 174.4" style="enable-background:new 0 0 619.4 174.4;" xml:space="preserve">
<style type="text/css">
	.st0{fill:#34A851;}
</style>
<title>Haw-Shop-logo07</title>
<g>
	<path class="st0" d="M166.2,121.3V149c-2,0.4-4,0.6-6,0.6c-10.7,0-19.7-3.5-26.8-10.6c-7.1-7-10.7-15.9-10.7-26.5
		c-0.1-20.4,16.3-37,36.6-37.1c0.1,0,0.3,0,0.4,0c11.5,0,20.6,3.4,27.3,10.1c6.6,6.7,10,15.9,10,27.6V148h-26.7v-33
		c0-3.8-0.9-6.8-2.8-9c-1.8-2.2-4.5-3.5-7.4-3.4c-2.8,0-5.4,1.1-7.3,3.1c-2,1.9-3.1,4.5-3.1,7.3c-0.1,2.7,0.9,5.4,2.8,7.3
		c1.9,1.9,4.4,3,7.1,2.9C162,123.1,164.2,122.5,166.2,121.3z"/>
	<path class="st0" d="M212.6,77.8h26.7v38.4c0,3,0.3,5.1,0.9,6.3c0.7,1.2,2,2,3.4,1.8c3,0,4.5-2.7,4.5-8V77.9h26.7v38.4
		c0,3,0.3,5.1,1,6.3c0.7,1.2,2,1.9,3.4,1.8c3,0,4.4-2.7,4.4-8V78h26.7v43.9c0.2,7.6-2.8,15-8.1,20.4c-5,5.5-12.2,8.5-19.6,8.4
		c-7.9,0-15-3.3-21.3-10c-7,6.7-14,10-21,10c-8.9,0-16.1-3.2-21.4-9.7c-4.2-5.1-6.4-12.5-6.4-22.1L212.6,77.8L212.6,77.8z"/>
</g>
<g>
	<path class="st0" d="M373.8,50v27.8c-1.6-0.6-3.2-1-4.9-1.1c-2.1,0-4.2,0.8-5.6,2.4c-1.6,1.6-2.4,3.7-2.4,5.9c0,2,0.9,4.4,2.6,7.4
		l2.2,3.9c4,7,6,13.7,6,20.2c0.1,9.1-3.5,17.8-10.1,24.1c-6.5,6.5-15.5,10.1-24.7,9.9c-4.8,0-9.6-1.1-13.9-3.2v-28.2
		c2.2,1.6,4.7,2.5,7.4,2.6c2.3,0.1,4.6-0.7,6.3-2.2c1.6-1.4,2.5-3.4,2.5-5.5c0-1.4-1.4-4.5-4.1-9.4c-4.3-7.6-6.5-15.2-6.5-22.9
		c-0.1-8.9,3.4-17.5,9.8-23.8c6.1-6.5,14.6-10.1,23.5-10C366,48,370,48.7,373.8,50z"/>
	<path class="st0" d="M413.2,50.5v29.8c4.5-3.3,9-4.9,13.6-4.9c6.9,0,12.3,2.5,16.3,7.4c4,5,6,11.6,6,20.1v45.2h-26.7v-37.7
		c0-3-0.3-5.1-1-6.1c-0.6-1-1.9-1.6-3.8-1.6c-3,0-4.5,2.2-4.5,6.6V148h-26.7V50.5H413.2z"/>
	<path class="st0" d="M498.5,75.3c9.8-0.1,19.2,3.8,26,10.9c14.4,14.4,14.4,37.8,0,52.2c-0.1,0.1-0.1,0.1-0.2,0.2
		c-14.7,14.5-38.3,14.5-53,0c-7.1-6.9-11.1-16.4-11-26.3c-0.2-9.9,3.8-19.5,11-26.3C478.7,78.8,487.8,75.3,498.5,75.3z M497.8,101.6
		c-2.8-0.1-5.4,1.1-7.3,3.1c-4,4.3-4,10.9,0,15.2c3.9,4,10.3,4.1,14.3,0.3c0.1-0.1,0.2-0.2,0.3-0.3c4-4.3,4-10.9,0-15.2
		C503.2,102.7,500.6,101.6,497.8,101.6z"/>
	<path class="st0" d="M571.6,174.4h-26.7v-59.5c0-10.9,2.9-19.8,8.6-26.7c3.4-4,7.7-7.3,12.5-9.4c14.3-6.6,31.2-3.7,42.5,7.2
		c7.2,6.8,11.1,16.4,10.9,26.3c0.1,9.9-3.8,19.3-10.9,26.2c-7.2,7.3-15.8,11-25.7,11c-1.6,0-4-0.2-7.1-0.5v-29.4
		c1.8,1.6,4.2,2.5,6.6,2.6c2.7,0,5.3-1.1,7.1-3.1c2-1.9,3-4.6,3-7.3c0-2.7-1.1-5.4-3.1-7.2c-2-2-4.6-3.1-7.4-3
		c-6.9,0-10.3,4.7-10.3,14.2L571.6,174.4L571.6,174.4z"/>
</g>
<polygon class="st0" points="0,0 0,148.6 44.2,148.6 44.2,92.3 56.4,92.3 56.4,53 44.2,53 44.2,0 "/>
<rect x="64" y="0" class="st0" width="44.2" height="148.6"/>
<path class="st0" d="M110.2,109.5"/>
</svg>
